<svg width="30" height="31" viewBox="0 0 30 31" fill="none" xmlns="http://www.w3.org/2000/svg">
<path d="M15.0012 7.882C19.1297 7.882 22.5373 11.2896 22.5373 15.4181C22.5373 19.612 19.1297 22.9541 15.0012 22.9541C10.8072 22.9541 7.46515 19.612 7.46515 15.4181C7.46515 11.2896 10.8072 7.882 15.0012 7.882ZM15.0012 20.3329C17.688 20.3329 19.8505 18.1704 19.8505 15.4181C19.8505 12.7313 17.688 10.5688 15.0012 10.5688C12.2489 10.5688 10.0864 12.7313 10.0864 15.4181C10.0864 18.1704 12.3144 20.3329 15.0012 20.3329ZM24.5687 7.61988C24.5687 8.60284 23.7824 9.38921 22.7994 9.38921C21.8164 9.38921 21.0301 8.60284 21.0301 7.61988C21.0301 6.63691 21.8164 5.85054 22.7994 5.85054C23.7824 5.85054 24.5687 6.63691 24.5687 7.61988ZM29.5491 9.38921C29.6801 11.8139 29.6801 19.0878 29.5491 21.5124C29.418 23.8716 28.8938 25.903 27.19 27.6723C25.4862 29.3761 23.3892 29.9004 21.0301 30.0315C18.6054 30.1625 11.3315 30.1625 8.90683 30.0315C6.54772 29.9004 4.51626 29.3761 2.74692 27.6723C1.04312 25.903 0.518872 23.8716 0.38781 21.5124C0.256748 19.0878 0.256748 11.8139 0.38781 9.38921C0.518872 7.0301 1.04312 4.93311 2.74692 3.2293C4.51626 1.5255 6.54772 1.00125 8.90683 0.870187C11.3315 0.739125 18.6054 0.739125 21.0301 0.870187C23.3892 1.00125 25.4862 1.5255 27.19 3.2293C28.8938 4.93311 29.418 7.0301 29.5491 9.38921ZM26.4036 24.0681C27.19 22.1677 26.9934 17.5806 26.9934 15.4181C26.9934 13.3211 27.19 8.7339 26.4036 6.76797C25.8793 5.52288 24.8964 4.47439 23.6513 4.01567C21.6854 3.2293 17.0982 3.42589 15.0012 3.42589C12.8387 3.42589 8.25152 3.2293 6.35113 4.01567C5.04051 4.53992 4.05754 5.52288 3.5333 6.76797C2.74692 8.7339 2.94352 13.3211 2.94352 15.4181C2.94352 17.5806 2.74692 22.1677 3.5333 24.0681C4.05754 25.3788 5.04051 26.3617 6.35113 26.886C8.25152 27.6723 12.8387 27.4758 15.0012 27.4758C17.0982 27.4758 21.6854 27.6723 23.6513 26.886C24.8964 26.3617 25.9449 25.3788 26.4036 24.0681Z" fill="#5F96B4"/>
</svg>
