<svg width="30" height="30" viewBox="0 0 30 30" fill="none" xmlns="http://www.w3.org/2000/svg">
<path d="M6.72059 30H0.62621V10.4062H6.72059V30ZM3.64063 7.78501C1.74024 7.78501 0.167494 6.14673 0.167494 4.18081C0.167494 2.28041 1.74024 0.707666 3.64063 0.707666C5.60656 0.707666 7.17931 2.28041 7.17931 4.18081C7.17931 6.14673 5.60656 7.78501 3.64063 7.78501ZM29.4598 30H23.431V20.498C23.431 18.2044 23.3654 15.3211 20.22 15.3211C17.0745 15.3211 16.6158 17.7457 16.6158 20.3014V30H10.5214V10.4062H16.3536V13.093H16.4192C17.2711 11.5858 19.237 9.94753 22.1859 9.94753C28.3458 9.94753 29.5254 14.0104 29.5254 19.2529V30H29.4598Z" fill="#5F96B4"/>
</svg>
