<svg width="103" height="53" viewBox="0 0 103 53" fill="none" xmlns="http://www.w3.org/2000/svg">
<path d="M69.7278 5.25698L101.118 20.89C101.428 21.0446 101.272 21.5154 100.931 21.4537L72.725 16.3601C72.6812 16.3521 72.6362 16.3541 72.5932 16.3657L64.9571 18.4368C64.7125 18.5031 64.5009 18.2551 64.605 18.024L68.4838 9.41036C68.6031 9.14538 68.3137 8.88251 68.0614 9.02672L46.2428 21.4977C46.0904 21.5848 45.896 21.523 45.8219 21.3638L43.1317 15.5806C43.0665 15.4404 42.9054 15.3727 42.7596 15.4244L31.406 19.444C31.0846 19.5578 30.8526 19.1324 31.1224 18.9239L41.2331 11.1068C41.4948 10.9045 41.2845 10.4897 40.9666 10.5812L33.681 12.6787C33.4384 12.7486 33.2232 12.5057 33.3219 12.2732L35.9621 6.0515C36.0762 5.78251 35.7776 5.52567 35.5287 5.67879L10.398 21.1403C10.1982 21.2633 9.94083 21.1194 9.94083 20.8848V19.4958C9.94083 19.2839 9.7271 19.1388 9.53014 19.2169L3.29132 21.6935C2.94971 21.8291 2.71068 21.3496 3.02461 21.1584L37.6413 0.0815352C37.7252 0.0304558 37.8287 0.0236777 37.9186 0.0633891L60.5923 10.0864C60.6787 10.1246 60.7779 10.1199 60.8602 10.0738L69.4475 5.26378C69.534 5.21529 69.639 5.21274 69.7278 5.25698Z" fill="#141413"/>
<path d="M16.8669 26C16.9869 26 17.0869 26.0467 17.1669 26.14C17.2602 26.22 17.3069 26.3133 17.3069 26.42C17.3069 26.5 17.2869 26.58 17.2469 26.66L12.2069 35V39.46C12.2069 39.6067 12.1535 39.7333 12.0469 39.84C11.9402 39.9467 11.8135 40 11.6669 40H7.40688C7.26021 40 7.13354 39.9467 7.02688 39.84C6.92021 39.7333 6.86688 39.6067 6.86688 39.46V35L1.84688 26.66C1.80688 26.58 1.78688 26.5067 1.78688 26.44C1.78688 26.32 1.82688 26.22 1.90688 26.14C2.00021 26.0467 2.10688 26 2.22688 26H6.44688C6.82021 26 7.09354 26.1533 7.26688 26.46L9.52688 30.42L11.8469 26.5C12.0469 26.1667 12.3269 26 12.6869 26H16.8669ZM34.7991 39.3C34.8524 39.38 34.8791 39.4667 34.8791 39.56C34.8791 39.68 34.8324 39.7867 34.7391 39.88C34.6591 39.96 34.5591 40 34.4391 40H29.2791C28.9724 40 28.7324 39.8933 28.5591 39.68L25.0791 35.38V39.46C25.0791 39.6067 25.0257 39.7333 24.9191 39.84C24.8124 39.9467 24.6857 40 24.5391 40H20.4191C20.2724 40 20.1457 39.9467 20.0391 39.84C19.9324 39.7333 19.8791 39.6067 19.8791 39.46V26.54C19.8791 26.3933 19.9324 26.2667 20.0391 26.16C20.1457 26.0533 20.2724 26 20.4191 26H24.5391C24.6857 26 24.8124 26.0533 24.9191 26.16C25.0257 26.2667 25.0791 26.3933 25.0791 26.54V30.3L28.2391 26.34C28.4391 26.1133 28.6857 26 28.9791 26H33.7991C33.9191 26 34.0191 26.0467 34.0991 26.14C34.1924 26.22 34.2391 26.32 34.2391 26.44C34.2391 26.5467 34.2057 26.64 34.1391 26.72L29.3991 32.5L34.7991 39.3ZM50.4313 26C50.5779 26 50.7046 26.0533 50.8113 26.16C50.9179 26.2667 50.9713 26.3933 50.9713 26.54V29.76C50.9713 29.9067 50.9179 30.0333 50.8113 30.14C50.7046 30.2467 50.5779 30.3 50.4313 30.3H46.1313V39.46C46.1313 39.6067 46.0779 39.7333 45.9713 39.84C45.8646 39.9467 45.7379 40 45.5912 40H41.4713C41.3246 40 41.1979 39.9467 41.0913 39.84C40.9846 39.7333 40.9313 39.6067 40.9313 39.46V30.3H36.6313C36.4846 30.3 36.3579 30.2467 36.2513 30.14C36.1446 30.0333 36.0913 29.9067 36.0913 29.76V26.54C36.0913 26.3933 36.1446 26.2667 36.2513 26.16C36.3579 26.0533 36.4846 26 36.6313 26H50.4313ZM67.9634 34.22C67.9634 36.26 67.2834 37.7667 65.9234 38.74C64.5768 39.7133 62.7768 40.2 60.5234 40.2C58.2701 40.2 56.4634 39.7133 55.1034 38.74C53.7568 37.7667 53.0834 36.2467 53.0834 34.18V31.82C53.0834 30.46 53.4034 29.3333 54.0434 28.44C54.6968 27.5333 55.5834 26.8667 56.7034 26.44C57.8234 26.0133 59.0968 25.8 60.5234 25.8C61.9501 25.8 63.2168 26.0133 64.3234 26.44C65.4434 26.8667 66.3301 27.5267 66.9834 28.42C67.6368 29.3133 67.9634 30.4333 67.9634 31.78V34.22ZM58.4834 34.6C58.4834 35.1467 58.6634 35.5667 59.0234 35.86C59.3968 36.1533 59.8968 36.3 60.5234 36.3C61.1501 36.3 61.6434 36.1533 62.0034 35.86C62.3768 35.5533 62.5634 35.1267 62.5634 34.58V31.42C62.5634 30.8733 62.3768 30.4533 62.0034 30.16C61.6434 29.8533 61.1501 29.7 60.5234 29.7C59.8968 29.7 59.3968 29.8467 59.0234 30.14C58.6634 30.4333 58.4834 30.8533 58.4834 31.4V34.6ZM77.5156 40.2C75.2756 40.2 73.4956 39.7133 72.1756 38.74C70.869 37.7667 70.2156 36.2467 70.2156 34.18V26.54C70.2156 26.3933 70.269 26.2667 70.3756 26.16C70.4823 26.0533 70.609 26 70.7556 26H74.9356C75.0823 26 75.209 26.0533 75.3156 26.16C75.4223 26.2667 75.4756 26.3933 75.4756 26.54V34.5C75.4756 35.0467 75.6556 35.4667 76.0156 35.76C76.389 36.0533 76.889 36.2 77.5156 36.2C78.1423 36.2 78.6356 36.0533 78.9956 35.76C79.369 35.4667 79.5556 35.0467 79.5556 34.5V26.54C79.5556 26.3933 79.609 26.2667 79.7156 26.16C79.8223 26.0533 79.949 26 80.0956 26H84.2756C84.4223 26 84.549 26.0533 84.6556 26.16C84.7623 26.2667 84.8156 26.3933 84.8156 26.54V34.18C84.8156 36.2467 84.1556 37.7667 82.8356 38.74C81.529 39.7133 79.7556 40.2 77.5156 40.2ZM102.448 39.38C102.474 39.4333 102.488 39.4933 102.488 39.56C102.488 39.68 102.441 39.7867 102.348 39.88C102.268 39.96 102.168 40 102.048 40H97.5078C97.3211 40 97.1478 39.9533 96.9878 39.86C96.8411 39.7667 96.7345 39.6467 96.6678 39.5L94.9078 35.54H93.2278V39.46C93.2278 39.6067 93.1745 39.7333 93.0678 39.84C92.9611 39.9467 92.8345 40 92.6878 40H88.3678C88.2211 40 88.0945 39.9467 87.9878 39.84C87.8811 39.7333 87.8278 39.6067 87.8278 39.46V26.54C87.8278 26.3933 87.8811 26.2667 87.9878 26.16C88.0945 26.0533 88.2211 26 88.3678 26H96.1478C97.3478 26 98.3945 26.1933 99.2878 26.58C100.194 26.9667 100.888 27.5267 101.368 28.26C101.848 28.9933 102.088 29.8533 102.088 30.84C102.088 32.6533 101.388 33.9667 99.9878 34.78L102.448 39.38ZM95.7278 31.84C96.0211 31.84 96.2478 31.7467 96.4078 31.56C96.5678 31.36 96.6478 31.1133 96.6478 30.82C96.6478 30.5267 96.5678 30.2733 96.4078 30.06C96.2611 29.8333 96.0345 29.72 95.7278 29.72H93.2278V31.84H95.7278Z" fill="#141413"/>
<path d="M4 46L101 51.5" stroke="#141413" stroke-width="2" stroke-linecap="round"/>
</svg>
