<svg width="34" height="29" viewBox="0 0 34 29" fill="none" xmlns="http://www.w3.org/2000/svg">
<path d="M30.5543 7.60284C30.5543 7.93049 30.5543 8.19262 30.5543 8.52027C30.5543 17.6291 23.6736 28.0485 11.0261 28.0485C7.09425 28.0485 3.49005 26.9345 0.475622 24.9685C0.99987 25.0341 1.52412 25.0996 2.1139 25.0996C5.32491 25.0996 8.27381 23.9856 10.6329 22.1507C7.6185 22.0852 5.06279 20.1193 4.21089 17.367C4.6696 17.4325 5.06279 17.498 5.52151 17.498C6.11128 17.498 6.76659 17.367 7.29084 17.2359C4.14536 16.5806 1.78624 13.8283 1.78624 10.4862V10.4207C2.70367 10.9449 3.8177 11.207 4.93173 11.2726C3.03133 10.0275 1.85177 7.93049 1.85177 5.57138C1.85177 4.26076 2.17943 3.0812 2.76921 2.09824C6.17681 6.22669 11.2882 8.97899 16.9894 9.30664C16.8584 8.7824 16.7928 8.25815 16.7928 7.7339C16.7928 3.93311 19.8728 0.853152 23.6736 0.853152C25.6395 0.853152 27.4088 1.63952 28.7195 3.01567C30.2267 2.68802 31.7339 2.09824 33.0445 1.31187C32.5203 2.95014 31.4718 4.26076 30.0301 5.11266C31.4062 4.9816 32.7824 4.58842 33.9619 4.06417C33.0445 5.44032 31.8649 6.61988 30.5543 7.60284Z" fill="#5F96B4"/>
</svg>
